<svg xmlns="http://www.w3.org/2000/svg" version="1.1" xmlns:xlink="http://www.w3.org/1999/xlink" xmlns:svgjs="http://svgjs.dev/svgjs" width="1000" height="1000" viewBox="0 0 1000 1000"><rect width="1000" height="1000" fill="#ffffff"></rect><g transform="matrix(0.7,0,0,0.7,149.57575757575756,420.13524884662786)"><svg viewBox="0 0 396 91" data-background-color="#0c1d36" preserveAspectRatio="xMidYMid meet" height="229" width="1000" xmlns="http://www.w3.org/2000/svg" xmlns:xlink="http://www.w3.org/1999/xlink"><g id="tight-bounds" transform="matrix(1,0,0,1,0.2400000000000091,-0.16193165965773915)"><svg viewBox="0 0 395.52 91.32386331931546" height="91.32386331931546" width="395.52"><g><svg viewBox="0 0 397.4975999999999 91.78048263591202" height="91.32386331931546" width="395.52"><g><rect width="397.4975999999999" height="2.8111149627467227" x="0" y="50.43851853970097" fill="#000000" opacity="1" stroke-width="0" stroke="transparent" fill-opacity="1" class="rect-o-0" data-fill-palette-color="secondary" rx="1%" id="o-0" data-palette-color="#f9cc0b"></rect></g><g transform="matrix(1,0,0,1,0.9887999999999693,60.60857319550194)"><svg viewBox="0 0 395.52 31.171909440410072" height="31.171909440410072" width="395.52"><g><svg viewBox="0 0 395.52 31.171909440410072" height="31.171909440410072" width="395.52"><g><svg viewBox="0 0 395.52 31.171909440410072" height="31.171909440410072" width="395.52"><g transform="matrix(1,0,0,1,0,0)"><svg width="395.52" viewBox="0.45000001788139343 -35.900001525878906 468.16998291015625 36.900001525878906" height="31.171909440410072" data-palette-color="#f9cc0b"><path d="M36.05-1.4L36.05 0 23.25 0 23.25-1.4 24.85-1.4Q27.05-1.4 27.05-2.8L27.05-2.8Q27.05-3 26.55-4.5L26.55-4.5 23.15-13.4 10.55-13.4 7.25-4.9Q7.25-4.8 6.9-3.68 6.55-2.55 6.55-2.13 6.55-1.7 7.1-1.55 7.65-1.4 9.45-1.4L9.45-1.4 10.25-1.4 10.25 0 0.45 0 0.45-1.4 1.15-1.4Q2.8-1.4 3.55-1.98 4.3-2.55 4.85-3.9L4.85-3.9 15.85-32.6Q16.1-32.65 16.75-33.33 17.4-34 17.95-34.73 18.5-35.45 18.5-35.55 18.5-35.65 18.45-35.7L18.45-35.7 19.15-35.9 31.45-3.7Q32-2.55 32.58-1.98 33.15-1.4 34.25-1.4L34.25-1.4 36.05-1.4ZM11.35-15.5L22.25-15.5 16.85-29.8 11.35-15.5ZM67.05-6.9L65.35 0 38.55 0 38.55-1.5 40.25-1.5Q41.75-1.5 42.2-2.05 42.65-2.6 42.65-3.7L42.65-3.7 42.65-31.3Q42.65-32.4 42.2-32.95 41.75-33.5 40.25-33.5L40.25-33.5 38.55-33.5 38.55-35 51.25-35 51.25-33.5 49.35-33.5Q47.85-33.5 47.4-32.95 46.95-32.4 46.95-31.3L46.95-31.3 46.95-4.4Q46.95-3.3 47.4-2.7 47.85-2.1 49.35-2.1L49.35-2.1 58.85-2.1Q61.5-2.1 63.52-3.83 65.55-5.55 65.55-7.2L65.55-7.2 67.05-6.9ZM79.84-15.7L79.45-17.7 81.84-17.6Q85.59-17.6 88.75-18.8L88.75-18.8Q90.59-19.5 91.72-21 92.84-22.5 92.84-24.7L92.84-24.7Q92.84-32.6 83.34-32.6L83.34-32.6 78.15-32.4 78.15-3.6Q78.15-2.9 78.25-2.5 78.34-2.1 78.9-1.75 79.45-1.4 80.55-1.4L80.55-1.4 82.45-1.4 82.45 0 69.75 0 69.75-1.4 71.34-1.4Q72.45-1.4 73-1.75 73.55-2.1 73.65-2.5 73.75-2.9 73.75-3.6L73.75-3.6 73.75-31.3Q73.75-32.45 73.27-32.98 72.8-33.5 71.34-33.5L71.34-33.5 69.75-33.5 69.75-35 77.45-35 86.95-35.5Q91.45-35.5 94.2-33.55 96.95-31.6 96.95-28.08 96.95-24.55 95.32-21.93 93.7-19.3 91.3-18L91.3-18Q86.75-15.6 83.15-15.6L83.15-15.6Q81.05-15.6 79.84-15.7L79.84-15.7ZM136.44-1.4L136.44 0 123.74 0 123.74-1.4 125.34-1.4Q126.44-1.4 126.99-1.78 127.54-2.15 127.64-2.55 127.74-2.95 127.74-3.7L127.74-3.7 127.74-17.1 108.34-17.1 108.34-3.7Q108.34-2.6 108.79-2 109.24-1.4 110.74-1.4L110.74-1.4 112.64-1.4 112.64 0 99.94 0 99.94-1.4 101.64-1.4Q103.14-1.4 103.59-2 104.04-2.6 104.04-3.7L104.04-3.7 104.04-31.3Q104.04-32.4 103.59-33 103.14-33.6 101.64-33.6L101.64-33.6 99.94-33.6 99.94-35 112.64-35 112.64-33.6 110.74-33.6Q109.24-33.6 108.79-33 108.34-32.4 108.34-31.3L108.34-31.3 108.34-19.3 127.74-19.3 127.74-31.3Q127.74-32.05 127.64-32.45 127.54-32.85 126.99-33.23 126.44-33.6 125.34-33.6L125.34-33.6 123.74-33.6 123.74-35 136.44-35 136.44-33.6 134.54-33.6Q133.44-33.6 132.89-33.23 132.34-32.85 132.24-32.45 132.14-32.05 132.14-31.3L132.14-31.3 132.14-3.7Q132.14-2.95 132.24-2.55 132.34-2.15 132.89-1.78 133.44-1.4 134.54-1.4L134.54-1.4 136.44-1.4ZM174.49-1.4L174.49 0 161.69 0 161.69-1.4 163.29-1.4Q165.49-1.4 165.49-2.8L165.49-2.8Q165.49-3 164.99-4.5L164.99-4.5 161.59-13.4 148.99-13.4 145.69-4.9Q145.69-4.8 145.34-3.68 144.99-2.55 144.99-2.13 144.99-1.7 145.54-1.55 146.09-1.4 147.89-1.4L147.89-1.4 148.69-1.4 148.69 0 138.89 0 138.89-1.4 139.59-1.4Q141.24-1.4 141.99-1.98 142.74-2.55 143.29-3.9L143.29-3.9 154.29-32.6Q154.54-32.65 155.19-33.33 155.84-34 156.39-34.73 156.94-35.45 156.94-35.55 156.94-35.65 156.89-35.7L156.89-35.7 157.59-35.9 169.89-3.7Q170.44-2.55 171.01-1.98 171.59-1.4 172.69-1.4L172.69-1.4 174.49-1.4ZM149.79-15.5L160.69-15.5 155.29-29.8 149.79-15.5ZM219.59-9.8L219.59-9.8 220.79-8Q216.74-3.4 212.69-1.2 208.64 1 203.99 1L203.99 1Q198.24 1 193.76-4.05 189.29-9.1 189.29-15.5L189.29-15.5Q189.29-23.55 195.36-29.73 201.44-35.9 209.49-35.9L209.49-35.9Q212.69-35.9 217.49-34.3L217.49-34.3 216.89-27.3 215.19-27.3Q215.19-29.15 213.94-30.2 212.69-31.25 211.11-31.53 209.54-31.8 207.19-31.8L207.19-31.8Q201.39-31.8 197.09-28.4 192.79-25 192.79-19.1L192.79-19.1Q192.79-14.8 194.39-11.45 195.99-8.1 198.39-6.3L198.39-6.3Q203.14-2.8 207.49-2.8L207.49-2.8Q210.19-2.8 213.49-4.55 216.79-6.3 219.59-9.8ZM239.38 1L239.38 1Q232.83 1 228.46-4.05 224.08-9.1 224.08-15.7L224.08-15.7Q224.08-19.8 225.88-23.6 227.68-27.4 230.51-30.05 233.33-32.7 236.76-34.3 240.18-35.9 243.38-35.9L243.38-35.9Q249.88-35.9 254.28-30.85 258.68-25.8 258.68-19.2L258.68-19.2Q258.68-14.3 256.03-9.63 253.38-4.95 248.86-1.98 244.33 1 239.38 1ZM242.48-2.8L242.48-2.8Q247.93-2.8 251.66-6.8 255.38-10.8 255.38-16.7 255.38-22.6 251.06-27.3 246.73-32 240.58-32L240.58-32Q235.33-32 231.36-28.23 227.38-24.45 227.38-19.2L227.38-19.2Q227.38-12.4 231.56-7.6 235.73-2.8 242.48-2.8ZM279.18-32.2L270.88-31.7 270.88-4.5Q273.78-2.8 278.78-2.8L278.78-2.8Q284.73-2.8 289.28-6.05L289.28-6.05Q291.58-7.7 292.93-10.65 294.28-13.6 294.28-17.32 294.28-21.05 292.81-23.95 291.33-26.85 288.98-28.6L288.98-28.6Q284.23-32.2 279.18-32.2L279.18-32.2ZM262.48-35L270.18-35 282.58-35.5Q289.53-35.5 293.56-31 297.58-26.5 297.58-18.98 297.58-11.45 291.81-5.73 286.03 0 278.28 0L278.28 0 262.48 0 262.48-1.5 264.18-1.5Q265.68-1.5 266.13-2.05 266.58-2.6 266.58-3.7L266.58-3.7 266.58-31.3Q266.58-32.45 266.11-32.98 265.63-33.5 264.18-33.5L264.18-33.5 262.48-33.5 262.48-35ZM329.88-6.9L328.18 0 301.38 0 301.38-1.4 303.08-1.4Q304.53-1.4 305-1.95 305.48-2.5 305.48-3.7L305.48-3.7 305.48-31.3Q305.48-32.3 304.85-32.95 304.23-33.6 303.08-33.6L303.08-33.6 301.38-33.6 301.38-35 327.78-35 328.18-28.1 326.78-27.8Q326.78-29.6 325.33-31.25 323.88-32.9 321.28-32.9L321.28-32.9 312.18-32.9Q310.68-32.9 310.23-32.33 309.78-31.75 309.78-30.7L309.78-30.7 309.78-19.3 319.78-19.3Q320.53-19.3 320.93-19.38 321.33-19.45 321.65-19.9 321.98-20.35 321.98-21.2L321.98-21.2 321.98-23.5 323.48-23.5 323.48-13.1 321.98-13.1 321.98-15.2Q321.98-16.45 321.43-16.82 320.88-17.2 319.78-17.2L319.78-17.2 309.78-17.2 309.78-4.3Q309.78-3.25 310.23-2.68 310.68-2.1 312.18-2.1L312.18-2.1 321.68-2.1Q324.33-2.1 326.35-3.8 328.38-5.5 328.48-7.1L328.48-7.1 329.88-6.9ZM374.37-6.9L372.67 0 345.87 0 345.87-1.5 347.57-1.5Q349.07-1.5 349.52-2.05 349.97-2.6 349.97-3.7L349.97-3.7 349.97-31.3Q349.97-32.4 349.52-32.95 349.07-33.5 347.57-33.5L347.57-33.5 345.87-33.5 345.87-35 358.57-35 358.57-33.5 356.67-33.5Q355.17-33.5 354.72-32.95 354.27-32.4 354.27-31.3L354.27-31.3 354.27-4.4Q354.27-3.3 354.72-2.7 355.17-2.1 356.67-2.1L356.67-2.1 366.17-2.1Q368.82-2.1 370.85-3.83 372.87-5.55 372.87-7.2L372.87-7.2 374.37-6.9ZM411.12-1.4L411.12 0 398.32 0 398.32-1.4 399.92-1.4Q402.12-1.4 402.12-2.8L402.12-2.8Q402.12-3 401.62-4.5L401.62-4.5 398.22-13.4 385.62-13.4 382.32-4.9Q382.32-4.8 381.97-3.68 381.62-2.55 381.62-2.13 381.62-1.7 382.17-1.55 382.72-1.4 384.52-1.4L384.52-1.4 385.32-1.4 385.32 0 375.52 0 375.52-1.4 376.22-1.4Q377.87-1.4 378.62-1.98 379.37-2.55 379.92-3.9L379.92-3.9 390.92-32.6Q391.17-32.65 391.82-33.33 392.47-34 393.02-34.73 393.57-35.45 393.57-35.55 393.57-35.65 393.52-35.7L393.52-35.7 394.22-35.9 406.52-3.7Q407.07-2.55 407.64-1.98 408.22-1.4 409.32-1.4L409.32-1.4 411.12-1.4ZM386.42-15.5L397.32-15.5 391.92-29.8 386.42-15.5ZM413.62-35L420.32-35 428.92-35.5Q435.72-35.5 437.57-32.2L437.57-32.2Q438.32-30.85 438.32-28.9L438.32-28.9Q438.32-23.1 433.52-19.7L433.52-19.7Q438.62-18.75 440.12-15.7L440.12-15.7Q440.82-14.2 440.82-12.1L440.82-12.1Q440.82-7.05 436.59-3.53 432.37 0 426.62 0L426.62 0 413.62 0 413.62-1.5 415.32-1.5Q416.82-1.5 417.22-2.05 417.62-2.6 417.62-3.7L417.62-3.7 417.62-31.3Q417.62-32.5 417.19-33 416.77-33.5 415.32-33.5L415.32-33.5 413.62-33.5 413.62-35ZM425.72-32.8L425.72-32.8Q423.72-32.8 422.02-32.5L422.02-32.5 422.02-19.4 428.12-19.4Q430.87-19.4 432.79-21.43 434.72-23.45 434.72-25.8L434.72-25.8Q434.72-29.2 432.02-31 429.32-32.8 425.72-32.8ZM426.62-17.3L426.62-17.3 422.02-17.3 422.02-3.1Q425.07-2.2 427.72-2.2L427.72-2.2Q431.72-2.2 434.22-4.17 436.72-6.15 436.72-9.5L436.72-9.5Q436.72-13.95 433.52-15.7L433.52-15.7Q430.67-17.3 426.62-17.3ZM444.12-2.4L444.12-2.4 444.81-8.9 446.51-8.8Q446.51-6.05 449.79-4.38 453.06-2.7 457.24-2.7 461.42-2.7 463.51-3.98 465.62-5.25 465.62-7.2L465.62-7.2Q465.62-10.5 462.12-13.1L462.12-13.1Q460.67-14.15 459.06-14.95L459.06-14.95Q455.42-16.85 454.49-17.38 453.56-17.9 452.42-18.45 451.26-19 450.29-19.63 449.31-20.25 448.22-21.15L448.22-21.15Q445.72-23.15 445.72-25.63 445.72-28.1 446.59-29.95 447.47-31.8 448.79-32.85 450.12-33.9 451.92-34.6L451.92-34.6Q454.97-35.7 458.74-35.7 462.51-35.7 466.01-33.8L466.01-33.8 465.42-28 463.72-28Q463.72-32.7 455.81-32.7L455.81-32.7Q452.17-32.7 450.34-31.55 448.51-30.4 448.51-28.4L448.51-28.4Q448.51-25.2 458.92-20.7L458.92-20.7Q465.76-17.75 467.67-14.15L467.67-14.15Q468.62-12.35 468.62-10.2L468.62-10.2Q468.62-5 464.44-2.15 460.26 0.7 454.37 0.7 448.47 0.7 444.12-2.4Z" opacity="1" transform="matrix(1,0,0,1,0,0)" fill="#000000" class="undefined-text-0" data-fill-palette-color="primary" id="text-0"></path></svg></g></svg></g></svg></g></svg></g><g transform="matrix(1,0,0,1,169.2090105766766,0)"><svg viewBox="0 0 59.079578846646726 43.079578846646726" height="43.079578846646726" width="59.079578846646726"><g><svg xmlns="http://www.w3.org/2000/svg" xmlns:xlink="http://www.w3.org/1999/xlink" xml:space="preserve" version="1.1" style="shape-rendering:geometricPrecision;text-rendering:geometricPrecision;image-rendering:optimizeQuality;" viewBox="5 5 990 990" x="8" y="0" fill-rule="evenodd" clip-rule="evenodd" height="43.079578846646726" width="43.079578846646726" class="icon-icon-0" data-fill-palette-color="accent" id="icon-0"><g fill="#f9f9f9" data-fill-palette-color="accent"><path class="" d="M5 5l990 0 0 990-990 0 0-990z m797 691c11-13 31-15 44-4 13 11 14 31 3 44-139 163-210 18-253-118-196 317-465 151-452-134 12-266 322-485 467-25 37-78 69-158 102-238 6-15 24-23 40-16 16 6 23 24 17 40-42 101-82 203-133 300 29 94 57 277 165 151z m-231-158c-127-426-354-301-366-51-12 259 204 352 366 51z" fill="#000000" data-fill-palette-color="accent"></path></g></svg></g></svg></g><g><rect width="92.67589057667664" height="2.8111149627467227" y="39.268463883900004" x="228.28858942332334" fill="#000000" data-fill-palette-color="secondary"></rect><rect width="92.67589057667664" height="2.8111149627467227" y="39.268463883900004" x="76.53311999999997" fill="#000000" data-fill-palette-color="secondary"></rect></g></svg></g><defs></defs></svg><rect width="395.52" height="91.32386331931546" fill="none" stroke="none" visibility="hidden"></rect></g></svg></g></svg>